<svg xmlns="http://www.w3.org/2000/svg" width="316" height="55" viewBox="0 0 316 55" fill="none"><path d="M25.6729 10.8721C23.3558 10.8721 21.0614 11.3285 18.9206 12.2152C16.7799 13.1019 14.8348 14.4016 13.1963 16.0401C11.5579 17.6785 10.2582 19.6236 9.37143 21.7644C8.48471 23.9051 8.02832 26.1995 8.02832 28.5167L15.5835 28.5167C15.5835 27.1917 15.8444 25.8797 16.3515 24.6556C16.8585 23.4315 17.6017 22.3192 18.5386 21.3824C19.4755 20.4455 20.5877 19.7023 21.8119 19.1952C23.036 18.6882 24.348 18.4272 25.6729 18.4272V10.8721Z" fill="#061F38"></path><path d="M0.970703 28.5168C0.970703 31.8638 1.62993 35.178 2.91076 38.2702C4.19158 41.3623 6.06891 44.172 8.43557 46.5386C10.8022 48.9053 13.6118 50.7826 16.704 52.0634C19.7962 53.3443 23.1104 54.0035 26.4573 54.0035V46.3575C24.1145 46.3575 21.7946 45.896 19.63 44.9995C17.4655 44.1029 15.4988 42.7888 13.8421 41.1321C12.1854 39.4754 10.8713 37.5087 9.97473 35.3442C9.07816 33.1796 8.6167 30.8597 8.6167 28.5168H0.970703Z" fill="#5465FF"></path><path fill-rule="evenodd" clip-rule="evenodd" d="M43.5057 2.88501H35.9534V28.5168H35.9508C35.9508 29.8417 35.6898 31.1537 35.1828 32.3778C34.6757 33.6019 33.9325 34.7142 32.9956 35.6511C32.0588 36.588 30.9465 37.3311 29.7224 37.8382C28.4983 38.3452 27.1863 38.6062 25.8613 38.6062L25.8613 46.1614C28.1785 46.1614 30.4729 45.705 32.6136 44.8182C34.7544 43.9315 36.6995 42.6318 38.3379 40.9934C39.9764 39.3549 41.2761 37.4098 42.1628 35.2691C43.0495 33.1283 43.5059 30.8339 43.5059 28.5168H43.5057V2.88501Z" fill="#061F38"></path><path d="M63.5629 46.2019C60.8606 46.2019 58.4077 45.516 56.2042 44.144C54.0423 42.772 52.3169 40.9219 51.0281 38.5937C49.7809 36.224 49.1572 33.5839 49.1572 30.6737C49.1572 27.7219 49.7809 25.0819 51.0281 22.7537C52.3169 20.3839 54.0423 18.513 56.2042 17.1411C58.4077 15.7275 60.8606 15.0207 63.5629 15.0207C65.8496 15.0207 67.866 15.5196 69.6121 16.5174C71.3998 17.4737 72.8134 18.8041 73.8527 20.5086C74.8921 22.2132 75.4118 24.1464 75.4118 26.3083V34.9143C75.4118 37.0762 74.8921 39.0095 73.8527 40.7141C72.8549 42.4186 71.4622 43.7698 69.6745 44.7676C67.8867 45.7238 65.8496 46.2019 63.5629 46.2019ZM64.6855 39.7163C67.2215 39.7163 69.2587 38.864 70.797 37.1594C72.3768 35.4548 73.1668 33.2721 73.1668 30.6113C73.1668 28.8236 72.8134 27.2438 72.1066 25.8718C71.3998 24.4998 70.402 23.4397 69.1132 22.6913C67.866 21.9014 66.39 21.5064 64.6855 21.5064C63.0225 21.5064 61.5466 21.9014 60.2577 22.6913C59.0105 23.4397 58.0127 24.4998 57.2643 25.8718C56.5576 27.2438 56.2042 28.8236 56.2042 30.6113C56.2042 32.3991 56.5576 33.9789 57.2643 35.3509C58.0127 36.7229 59.0105 37.8038 60.2577 38.5937C61.5466 39.3421 63.0225 39.7163 64.6855 39.7163ZM72.7302 45.5783V37.5336L73.9151 30.2372L72.7302 23.0031V15.6444H79.5901V45.5783H72.7302Z" fill="#061F38"></path><path d="M91.7556 45.5783V3.17188H98.6155V45.5783H91.7556ZM84.584 21.8806V15.6444H105.787V21.8806H84.584Z" fill="#061F38"></path><path d="M122.454 46.2019C119.752 46.2019 117.299 45.516 115.095 44.144C112.933 42.772 111.208 40.9219 109.919 38.5937C108.672 36.224 108.048 33.5839 108.048 30.6737C108.048 27.7219 108.672 25.0819 109.919 22.7537C111.208 20.3839 112.933 18.513 115.095 17.1411C117.299 15.7275 119.752 15.0207 122.454 15.0207C124.741 15.0207 126.757 15.5196 128.503 16.5174C130.291 17.4737 131.704 18.8041 132.744 20.5086C133.783 22.2132 134.303 24.1464 134.303 26.3083V34.9143C134.303 37.0762 133.783 39.0095 132.744 40.7141C131.746 42.4186 130.353 43.7698 128.566 44.7676C126.778 45.7238 124.741 46.2019 122.454 46.2019ZM123.577 39.7163C126.113 39.7163 128.15 38.864 129.688 37.1594C131.268 35.4548 132.058 33.2721 132.058 30.6113C132.058 28.8236 131.704 27.2438 130.998 25.8718C130.291 24.4998 129.293 23.4397 128.004 22.6913C126.757 21.9014 125.281 21.5064 123.577 21.5064C121.914 21.5064 120.438 21.9014 119.149 22.6913C117.902 23.4397 116.904 24.4998 116.155 25.8718C115.449 27.2438 115.095 28.8236 115.095 30.6113C115.095 32.3991 115.449 33.9789 116.155 35.3509C116.904 36.7229 117.902 37.8038 119.149 38.5937C120.438 39.3421 121.914 39.7163 123.577 39.7163ZM131.621 45.5783V37.5336L132.806 30.2372L131.621 23.0031V15.6444H138.481V45.5783H131.621Z" fill="#061F38"></path><path d="M192.9 46.2021C191.237 46.2021 189.637 45.9942 188.098 45.5784C186.56 45.1211 185.147 44.4975 183.858 43.7076C182.569 42.8761 181.446 41.8783 180.49 40.7142L184.856 36.3488C185.895 37.5545 187.08 38.4691 188.41 39.0927C189.782 39.6748 191.321 39.9658 193.025 39.9658C194.563 39.9658 195.727 39.7372 196.517 39.2798C197.307 38.8225 197.702 38.1573 197.702 37.2842C197.702 36.3696 197.328 35.6628 196.58 35.1639C195.831 34.665 194.854 34.2493 193.649 33.9167C192.485 33.5425 191.237 33.1683 189.907 32.7941C188.618 32.42 187.371 31.9211 186.165 31.2974C185.001 30.6322 184.045 29.7384 183.297 28.6159C182.548 27.4933 182.174 26.0382 182.174 24.2505C182.174 22.338 182.611 20.6958 183.484 19.3239C184.398 17.9519 185.666 16.8917 187.288 16.1434C188.951 15.395 190.926 15.0208 193.212 15.0208C195.624 15.0208 197.744 15.4574 199.573 16.3305C201.444 17.162 203.003 18.43 204.25 20.1346L199.885 24.4999C199.012 23.419 198.014 22.6083 196.892 22.0678C195.769 21.5273 194.48 21.2571 193.025 21.2571C191.653 21.2571 190.593 21.465 189.845 21.8807C189.096 22.2965 188.722 22.8993 188.722 23.6892C188.722 24.5207 189.096 25.1651 189.845 25.6225C190.593 26.0798 191.549 26.4747 192.713 26.8073C193.919 27.1399 195.166 27.5141 196.455 27.9299C197.785 28.304 199.033 28.8445 200.197 29.5513C201.402 30.2165 202.379 31.1311 203.128 32.2952C203.876 33.4178 204.25 34.8937 204.25 36.723C204.25 39.6332 203.232 41.9406 201.195 43.6452C199.157 45.3498 196.393 46.2021 192.9 46.2021Z" fill="#061F38"></path><path d="M222.441 46.2021C219.738 46.2021 217.285 45.5161 215.082 44.1441C212.92 42.7721 211.195 40.922 209.906 38.5938C208.659 36.2241 208.035 33.5841 208.035 30.6738C208.035 27.722 208.659 25.082 209.906 22.7538C211.195 20.384 212.92 18.5131 215.082 17.1412C217.285 15.7276 219.738 15.0208 222.441 15.0208C224.727 15.0208 226.744 15.5197 228.49 16.5175C230.278 17.4738 231.691 18.8042 232.73 20.5087C233.77 22.2133 234.29 24.1465 234.29 26.3084V34.9145C234.29 37.0764 233.77 39.0096 232.73 40.7142C231.733 42.4187 230.34 43.7699 228.552 44.7677C226.764 45.7239 224.727 46.2021 222.441 46.2021ZM223.563 39.7164C226.099 39.7164 228.136 38.8641 229.675 37.1595C231.255 35.4549 232.044 33.2722 232.044 30.6115C232.044 28.8237 231.691 27.2439 230.984 25.8719C230.278 24.4999 229.28 23.4398 227.991 22.6914C226.744 21.9015 225.268 21.5065 223.563 21.5065C221.9 21.5065 220.424 21.9015 219.135 22.6914C217.888 23.4398 216.89 24.4999 216.142 25.8719C215.435 27.2439 215.082 28.8237 215.082 30.6115C215.082 32.3992 215.435 33.979 216.142 35.351C216.89 36.723 217.888 37.8039 219.135 38.5938C220.424 39.3422 221.9 39.7164 223.563 39.7164ZM231.608 45.5784V37.5337L232.793 30.2373L231.608 23.0032V15.6445H238.468V45.5784H231.608Z" fill="#061F38"></path><path d="M246.081 45.5784V0.67749H252.941V45.5784H246.081Z" fill="#061F38"></path><path d="M274.482 46.2021C271.489 46.2021 268.786 45.5369 266.375 44.2065C264.005 42.8345 262.114 40.9636 260.7 38.5938C259.328 36.2241 258.642 33.5633 258.642 30.6115C258.642 27.6596 259.328 25.0196 260.7 22.6914C262.072 20.3217 263.922 18.4508 266.25 17.0788C268.62 15.7068 271.239 15.0208 274.108 15.0208C276.893 15.0208 279.346 15.6653 281.467 16.9541C283.629 18.2429 285.312 20.0098 286.518 22.2549C287.765 24.4999 288.389 27.0568 288.389 29.9255C288.389 30.4244 288.347 30.9441 288.264 31.4845C288.223 31.9834 288.139 32.5447 288.015 33.1683H263.444V27.5557H284.46L281.903 29.8007C281.82 27.9714 281.467 26.4332 280.843 25.1859C280.219 23.9387 279.326 22.9824 278.161 22.3172C277.039 21.6521 275.646 21.3195 273.983 21.3195C272.237 21.3195 270.72 21.6936 269.431 22.442C268.142 23.1903 267.144 24.2505 266.437 25.6225C265.731 26.9529 265.377 28.5535 265.377 30.4244C265.377 32.2952 265.751 33.9374 266.5 35.351C267.248 36.7645 268.308 37.8663 269.68 38.6562C271.052 39.4046 272.632 39.7787 274.42 39.7787C275.958 39.7787 277.372 39.5085 278.66 38.968C279.991 38.4275 281.113 37.6376 282.028 36.5982L286.393 41.026C284.938 42.7305 283.171 44.0194 281.093 44.8924C279.014 45.7655 276.81 46.2021 274.482 46.2021Z" fill="#061F38"></path><path d="M303.679 46.2021C302.016 46.2021 300.415 45.9942 298.877 45.5784C297.339 45.1211 295.925 44.4975 294.636 43.7076C293.348 42.8761 292.225 41.8783 291.269 40.7142L295.634 36.3488C296.674 37.5545 297.858 38.4691 299.189 39.0927C300.561 39.6748 302.099 39.9658 303.804 39.9658C305.342 39.9658 306.506 39.7372 307.296 39.2798C308.086 38.8225 308.481 38.1573 308.481 37.2842C308.481 36.3696 308.107 35.6628 307.358 35.1639C306.61 34.665 305.633 34.2493 304.427 33.9167C303.263 33.5425 302.016 33.1683 300.686 32.7941C299.397 32.42 298.149 31.9211 296.944 31.2974C295.78 30.6322 294.823 29.7384 294.075 28.6159C293.327 27.4933 292.953 26.0382 292.953 24.2505C292.953 22.338 293.389 20.6958 294.262 19.3239C295.177 17.9519 296.445 16.8917 298.066 16.1434C299.729 15.395 301.704 15.0208 303.991 15.0208C306.402 15.0208 308.522 15.4574 310.352 16.3305C312.223 17.162 313.782 18.43 315.029 20.1346L310.663 24.4999C309.79 23.419 308.793 22.6083 307.67 22.0678C306.548 21.5273 305.259 21.2571 303.804 21.2571C302.432 21.2571 301.371 21.465 300.623 21.8807C299.875 22.2965 299.501 22.8993 299.501 23.6892C299.501 24.5207 299.875 25.1651 300.623 25.6225C301.371 26.0798 302.328 26.4747 303.492 26.8073C304.698 27.1399 305.945 27.5141 307.234 27.9299C308.564 28.304 309.811 28.8445 310.975 29.5513C312.181 30.2165 313.158 31.1311 313.906 32.2952C314.655 33.4178 315.029 34.8937 315.029 36.723C315.029 39.6332 314.01 41.9406 311.973 43.6452C309.936 45.3498 307.171 46.2021 303.679 46.2021Z" fill="#061F38"></path><path d="M142.554 29.9879L158.082 1.9248H166.189L150.287 29.9879H142.554ZM142.554 34.3533V29.9879L145.609 27.9299H176.417V34.3533H142.554ZM163.258 45.5785V17.0165H170.305V45.5785H163.258Z" fill="#061F38"></path></svg>